<svg width="48" height="48" fill="none" xmlns="http://www.w3.org/2000/svg"><g clip-path="url(#a)"><path fill-rule="evenodd" clip-rule="evenodd" d="M1.126 5.39C0 7.558 0 10.405 0 16.1v15.8c0 5.695 0 8.542 1.126 10.71a10 10 0 0 0 4.264 4.264C7.558 48 10.405 48 16.1 48h15.8c5.695 0 8.542 0 10.71-1.126a9.999 9.999 0 0 0 4.264-4.264C48 40.442 48 37.595 48 31.9V16.1c0-5.695 0-8.542-1.126-10.71a10 10 0 0 0-4.264-4.264C40.442 0 37.595 0 31.9 0H16.1C10.405 0 7.558 0 5.39 1.126A10 10 0 0 0 1.126 5.39Zm27.172 6.358a7.283 7.283 0 0 0 1.666-5.218 7.41 7.41 0 0 0-4.795 2.48 6.929 6.929 0 0 0-1.71 5.025 6.128 6.128 0 0 0 4.84-2.287Zm4.084 12.093a7.397 7.397 0 0 1 3.522-6.207 7.573 7.573 0 0 0-5.966-3.225c-1.535-.162-3.042.436-4.274.925-.781.31-1.452.577-1.949.577-.565 0-1.255-.277-2.028-.588-1.011-.406-2.164-.87-3.366-.845a7.946 7.946 0 0 0-6.687 4.078c-2.89 5.006-.734 12.362 2.035 16.408 1.386 1.981 3.005 4.194 5.124 4.116.961-.04 1.643-.327 2.348-.624.815-.343 1.66-.699 3.003-.699 1.266 0 2.075.345 2.851.676.744.317 1.459.621 2.517.597 2.225-.036 3.627-1.99 4.963-3.99a16.385 16.385 0 0 0 2.27-4.623 7.148 7.148 0 0 1-4.363-6.576Z" fill="#88B7A4"/><path d="M29.964 6.53a7.283 7.283 0 0 1-1.666 5.218 6.128 6.128 0 0 1-4.838 2.287 6.93 6.93 0 0 1 1.71-5.024 7.41 7.41 0 0 1 4.794-2.481ZM33.345 20.285a7.397 7.397 0 0 0-.963 3.556 7.149 7.149 0 0 0 4.363 6.576 16.387 16.387 0 0 1-2.27 4.623c-1.337 2-2.738 3.954-4.963 3.99-1.058.024-1.773-.28-2.517-.597-.776-.33-1.585-.675-2.851-.675-1.343 0-2.188.355-3.003.698-.705.297-1.387.584-2.348.624-2.119.078-3.738-2.135-5.124-4.116-2.769-4.046-4.925-11.402-2.035-16.408a7.945 7.945 0 0 1 6.687-4.078c1.202-.024 2.355.439 3.366.845.773.31 1.463.588 2.028.588.497 0 1.168-.266 1.95-.577 1.23-.489 2.738-1.086 4.273-.925a7.573 7.573 0 0 1 5.966 3.225 7.397 7.397 0 0 0-2.56 2.65Z" fill="#1C2A3A" fill-opacity=".15"/></g><defs><clipPath id="a"><path fill="#fff" d="M0 0h48v48H0z"/></clipPath></defs></svg>