<svg width="48" height="48" fill="none" xmlns="http://www.w3.org/2000/svg"><path fill-rule="evenodd" clip-rule="evenodd" d="M1.126 5.39C0 7.558 0 10.405 0 16.1v15.8c0 5.695 0 8.542 1.126 10.71a10 10 0 0 0 4.264 4.264C7.558 48 10.405 48 16.1 48h15.8c5.695 0 8.542 0 10.71-1.126a9.999 9.999 0 0 0 4.264-4.264C48 40.442 48 37.595 48 31.9V16.1c0-5.695 0-8.542-1.126-10.71a10 10 0 0 0-4.264-4.264C40.442 0 37.595 0 31.9 0H16.1C10.405 0 7.558 0 5.39 1.126A10 10 0 0 0 1.126 5.39Zm9.647 9.517a4.164 4.164 0 1 0 0-8.328 4.164 4.164 0 0 0 0 8.328Zm7.978 3.077h6.9v3.161S27.526 17.4 32.62 17.4c4.545 0 8.31 2.239 8.31 9.064v14.392H33.78V28.208c0-4.026-2.15-4.469-3.787-4.469-3.4 0-3.981 2.932-3.981 4.994v12.123h-7.26V17.984Zm-4.348 0h-7.26v22.872h7.26V17.984Z" fill="#88B7A4"/></svg>