<svg width="48" height="48" fill="none" xmlns="http://www.w3.org/2000/svg"><path fill-rule="evenodd" clip-rule="evenodd" d="M1.126 5.39C0 7.558 0 10.405 0 16.1v15.8c0 5.695 0 8.542 1.126 10.71a10 10 0 0 0 4.264 4.264C7.558 48 10.405 48 16.1 48h15.8c5.695 0 8.542 0 10.71-1.126a9.999 9.999 0 0 0 4.264-4.264C48 40.442 48 37.595 48 31.9V16.1c0-5.695 0-8.542-1.126-10.71a10 10 0 0 0-4.264-4.264C40.442 0 37.595 0 31.9 0H16.1C10.405 0 7.558 0 5.39 1.126A10 10 0 0 0 1.126 5.39Zm36.212 13.662c0-.3-.004-.6-.015-.9a13.583 13.583 0 0 0 3.17-3.556 11.921 11.921 0 0 1-3.652 1.076c1.315-.845 2.322-2.194 2.798-3.802-1.23.79-2.589 1.363-4.04 1.663-1.158-1.336-2.81-2.167-4.638-2.167-3.511 0-6.358 3.08-6.358 6.882 0 .531.056 1.063.164 1.567-5.282-.287-9.968-3.026-13.103-7.196a7.297 7.297 0 0 0-.863 3.462c0 2.385 1.123 4.497 2.83 5.737a6.16 6.16 0 0 1-2.882-.859v.082c0 3.34 2.193 6.119 5.104 6.746a5.735 5.735 0 0 1-1.676.245c-.41 0-.81-.04-1.199-.123.81 2.726 3.159 4.729 5.94 4.77-2.175 1.853-4.918 2.957-7.896 2.957-.513 0-1.018-.04-1.515-.095 2.813 1.949 6.153 3.093 9.745 3.093 11.692 0 18.086-10.493 18.086-19.582Z" fill="#88B7A4"/></svg>