<svg width="37" height="36" fill="none" xmlns="http://www.w3.org/2000/svg"><path d="M8.69 27.735v-4.38c0-1.455 1.14-2.76 2.76-2.76 1.455 0 2.76 1.14 2.76 2.76v4.215c0 2.925-2.43 5.355-5.355 5.355-2.925 0-5.355-2.445-5.355-5.355v-9.24C3.335 9.9 9.995 3.075 18.425 3.075S33.5 9.9 33.5 18.165v9.24c0 2.925-2.43 5.355-5.355 5.355-2.925 0-5.355-2.43-5.355-5.355V23.19c0-1.455 1.14-2.76 2.76-2.76 1.455 0 2.76 1.14 2.76 2.76v4.545" stroke="#1C2A3A" stroke-width="1.5" stroke-linecap="round" stroke-linejoin="round"/></svg>